<?xml version="1.0" encoding="UTF-8"?>
<!DOCTYPE svg PUBLIC "-//W3C//DTD SVG 1.1//EN" "http://www.w3.org/Graphics/SVG/1.1/DTD/svg11.dtd">
<!-- Creator: CorelDRAW 2018 (64-Bit) -->
<svg xmlns="http://www.w3.org/2000/svg" xml:space="preserve" width="29.928mm" height="17.272mm" version="1.1" style="shape-rendering:geometricPrecision; text-rendering:geometricPrecision; image-rendering:optimizeQuality; fill-rule:evenodd; clip-rule:evenodd"
viewBox="0 0 219.88 126.9"
 xmlns:xlink="http://www.w3.org/1999/xlink">
 <defs>
  <style type="text/css">
   <![CDATA[
    .fil0 {fill:#4E6281;fill-rule:nonzero}
   ]]>
  </style>
 </defs>
 <g id="Layer_x0020_1">
  <metadata id="CorelCorpID_0Corel-Layer"/>
  <path class="fil0" d="M17.85 15.25l12.2 12.2 -2.6 2.6 -12.2 -12.2 2.6 -2.6zm-14.17 -15.25l216.2 0 0 126.9 -219.88 0 0 -126.9 3.67 0zm208.86 7.35l-205.18 0 0 112.2 205.18 0 0 -112.2zm-22.7 20.1l12.2 -12.2 2.6 2.6 -12.2 12.2 -2.6 -2.6zm2.6 69.4l12.2 12.2 -2.6 2.6 -12.2 -12.2 2.6 -2.6zm-177.18 12.2l12.2 -12.2 2.6 2.6 -12.2 12.2 -2.6 -2.6z"/>
 </g>
</svg>
