<?xml version="1.0" encoding="UTF-8"?>
<!DOCTYPE svg PUBLIC "-//W3C//DTD SVG 1.1//EN" "http://www.w3.org/Graphics/SVG/1.1/DTD/svg11.dtd">
<!-- Creator: CorelDRAW 2018 (64-Bit) -->
<svg xmlns="http://www.w3.org/2000/svg" xml:space="preserve" width="17.2718mm" height="17.2718mm" version="1.1" style="shape-rendering:geometricPrecision; text-rendering:geometricPrecision; image-rendering:optimizeQuality; fill-rule:evenodd; clip-rule:evenodd"
viewBox="0 0 56.07 56.07"
 xmlns:xlink="http://www.w3.org/1999/xlink">
 <defs>
  <style type="text/css">
   <![CDATA[
    .fil0 {fill:#4E6281;fill-rule:nonzero}
   ]]>
  </style>
 </defs>
 <g id="Layer_x0020_1">
  <metadata id="CorelCorpID_0Corel-Layer"/>
  <path class="fil0" d="M1.62 0l54.44 0 0 56.07 -56.07 0 0 -56.07 1.62 0zm41.17 12.13l5.39 -5.39 1.15 1.15 -5.39 5.39 -1.15 -1.15zm1.15 30.66l5.39 5.39 -1.15 1.15 -5.39 -5.39 1.15 -1.15zm-37.2 5.39l5.39 -5.39 1.15 1.15 -5.39 5.39 -1.15 -1.15zm1.15 -41.44l5.39 5.39 -1.15 1.15 -5.39 -5.39 1.15 -1.15zm44.93 -3.49l-49.57 0 0 49.57 49.57 0 0 -49.57z"/>
 </g>
</svg>
