<?xml version="1.0" encoding="UTF-8"?>
<!DOCTYPE svg PUBLIC "-//W3C//DTD SVG 1.1//EN" "http://www.w3.org/Graphics/SVG/1.1/DTD/svg11.dtd">
<!-- Creator: CorelDRAW 2018 (64-Bit) -->
<svg xmlns="http://www.w3.org/2000/svg" xml:space="preserve" width="17.272mm" height="29.928mm" version="1.1" style="shape-rendering:geometricPrecision; text-rendering:geometricPrecision; image-rendering:optimizeQuality; fill-rule:evenodd; clip-rule:evenodd"
viewBox="0 0 76.76 133"
 xmlns:xlink="http://www.w3.org/1999/xlink">
 <defs>
  <style type="text/css">
   <![CDATA[
    .fil0 {fill:#4E6281;fill-rule:nonzero}
   ]]>
  </style>
 </defs>
 <g id="Layer_x0020_1">
  <metadata id="CorelCorpID_0Corel-Layer"/>
  <path class="fil0" d="M9.22 122.2l7.38 -7.38 1.57 1.57 -7.38 7.38 -1.57 -1.57zm-9.22 8.57l0 -130.78 76.76 0 0 133 -76.76 0 0 -2.22zm4.44 -126.33l0 124.11 67.87 0 0 -124.11 -67.87 0zm12.16 13.73l-7.38 -7.38 1.57 -1.57 7.38 7.38 -1.57 1.57zm41.98 -1.57l7.38 -7.38 1.57 1.57 -7.38 7.38 -1.57 -1.57zm7.38 107.17l-7.38 -7.38 1.57 -1.57 7.38 7.38 -1.57 1.57z"/>
 </g>
</svg>
